<svg xmlns="http://www.w3.org/2000/svg" viewBox="0 0 1500 1500" role="img" aria-label="Theresa Liebich favicon source">
  <defs>
    <clipPath id="rounded-square">
      <rect x="0" y="0" width="1500" height="1500" rx="260" ry="260" />
    </clipPath>
  </defs>
  <g clip-path="url(#rounded-square)" transform="translate(0 18)">
    <path
      fill="#a86f61"
      d="M 754.589844 1207.1875 C 458.101562 1207.1875 270.53125 1040.71875 270.546875 763.117188 C 270.570312 501.179688 493.289062 309.601562 754.589844 293.875 C 1033.414062 277.09375 1218.132812 511.457031 1228.566406 773.183594 C 1240.949219 1083.703125 1016.359375 1207.1875 754.589844 1207.1875 Z M 793.5625 928.949219 L 1052.320312 928.949219 L 1052.320312 855.554688 L 877.105469 855.554688 L 877.105469 567.0625 L 793.5625 567.0625 Z M 752.816406 640.457031 L 752.816406 567.0625 L 448.726562 567.0625 L 448.726562 640.457031 L 559.257812 640.457031 L 559.257812 928.949219 L 642.78125 928.949219 L 642.78125 640.457031 Z M 752.816406 640.457031"
    />
  </g>
</svg>
