<svg xmlns="http://www.w3.org/2000/svg" xmlns:xlink="http://www.w3.org/1999/xlink" width="2000" zoomAndPan="magnify" viewBox="0 0 1500 1499.999933" height="2000" preserveAspectRatio="xMidYMid meet" version="1.0"><defs><g/><clipPath id="0e899ae9af"><path d="M 45.65625 586.023438 L 389.90625 586.023438 L 389.90625 913.773438 L 45.65625 913.773438 Z M 45.65625 586.023438 " clip-rule="nonzero"/></clipPath><clipPath id="6762b44204"><path d="M 221 172 L 221.320312 172 L 221.320312 173 L 221 173 Z M 221 172 " clip-rule="nonzero"/></clipPath><clipPath id="b6d0d1b1d3"><rect x="0" width="222" y="0" height="216"/></clipPath></defs><g fill="#f0ebe8" fill-opacity="1"><g transform="translate(433.90382, 714.749918)"><g><path d="M 61.609375 -59.984375 L 38.484375 -59.984375 L 38.484375 0 L 24.546875 0 L 24.546875 -59.984375 L 1.421875 -59.984375 L 1.421875 -72.296875 L 61.609375 -72.296875 Z M 61.609375 -59.984375 "/></g></g></g><g fill="#f0ebe8" fill-opacity="1"><g transform="translate(496.932974, 714.749918)"><g><path d="M 55.796875 0 L 42.15625 0 L 42.15625 -29.9375 C 42.15625 -34.082031 41.359375 -37.171875 39.765625 -39.203125 C 38.171875 -41.242188 35.984375 -42.265625 33.203125 -42.265625 C 31.566406 -42.265625 29.832031 -41.785156 28 -40.828125 C 26.164062 -39.878906 24.519531 -38.570312 23.0625 -36.90625 C 21.601562 -35.25 20.535156 -33.332031 19.859375 -31.15625 L 19.859375 0 L 6.21875 0 L 6.21875 -74.328125 L 19.859375 -74.328125 L 19.859375 -43.484375 C 21.828125 -46.878906 24.507812 -49.523438 27.90625 -51.421875 C 31.300781 -53.328125 35 -54.28125 39 -54.28125 C 42.457031 -54.28125 45.269531 -53.679688 47.4375 -52.484375 C 49.613281 -51.296875 51.3125 -49.703125 52.53125 -47.703125 C 53.757812 -45.703125 54.609375 -43.460938 55.078125 -40.984375 C 55.554688 -38.503906 55.796875 -35.941406 55.796875 -33.296875 Z M 55.796875 0 "/></g></g></g><g fill="#f0ebe8" fill-opacity="1"><g transform="translate(558.434766, 714.749918)"><g><path d="M 30.953125 1.015625 C 26.679688 1.015625 22.8125 0.285156 19.34375 -1.171875 C 15.882812 -2.628906 12.929688 -4.628906 10.484375 -7.171875 C 8.046875 -9.722656 6.160156 -12.644531 4.828125 -15.9375 C 3.503906 -19.226562 2.84375 -22.707031 2.84375 -26.375 C 2.84375 -31.46875 3.976562 -36.117188 6.25 -40.328125 C 8.53125 -44.535156 11.789062 -47.910156 16.03125 -50.453125 C 20.28125 -53.003906 25.289062 -54.28125 31.0625 -54.28125 C 36.894531 -54.28125 41.878906 -53.003906 46.015625 -50.453125 C 50.160156 -47.910156 53.335938 -44.550781 55.546875 -40.375 C 57.753906 -36.195312 58.859375 -31.695312 58.859375 -26.875 C 58.859375 -26.0625 58.820312 -25.226562 58.75 -24.375 C 58.6875 -23.53125 58.617188 -22.835938 58.546875 -22.296875 L 17.3125 -22.296875 C 17.582031 -19.585938 18.378906 -17.210938 19.703125 -15.171875 C 21.023438 -13.140625 22.722656 -11.59375 24.796875 -10.53125 C 26.867188 -9.476562 29.09375 -8.953125 31.46875 -8.953125 C 34.175781 -8.953125 36.734375 -9.613281 39.140625 -10.9375 C 41.554688 -12.269531 43.207031 -14.019531 44.09375 -16.1875 L 55.796875 -12.9375 C 54.503906 -10.21875 52.65625 -7.804688 50.25 -5.703125 C 47.84375 -3.597656 45.007812 -1.953125 41.75 -0.765625 C 38.488281 0.421875 34.890625 1.015625 30.953125 1.015625 Z M 17 -30.953125 L 44.90625 -30.953125 C 44.632812 -33.671875 43.867188 -36.03125 42.609375 -38.03125 C 41.359375 -40.03125 39.710938 -41.585938 37.671875 -42.703125 C 35.640625 -43.828125 33.367188 -44.390625 30.859375 -44.390625 C 28.410156 -44.390625 26.1875 -43.828125 24.1875 -42.703125 C 22.1875 -41.585938 20.554688 -40.03125 19.296875 -38.03125 C 18.035156 -36.03125 17.269531 -33.671875 17 -30.953125 Z M 17 -30.953125 "/></g></g></g><g fill="#f0ebe8" fill-opacity="1"><g transform="translate(619.427432, 714.749918)"><g><path d="M 37.984375 -41.546875 C 33.835938 -41.546875 30.132812 -40.75 26.875 -39.15625 C 23.625 -37.5625 21.285156 -35.269531 19.859375 -32.28125 L 19.859375 0 L 6.21875 0 L 6.21875 -53.359375 L 18.734375 -53.359375 L 18.734375 -41.953125 C 20.640625 -45.617188 23.050781 -48.503906 25.96875 -50.609375 C 28.882812 -52.710938 31.972656 -53.867188 35.234375 -54.078125 C 35.984375 -54.078125 36.5625 -54.078125 36.96875 -54.078125 C 37.375 -54.078125 37.710938 -54.039062 37.984375 -53.96875 Z M 37.984375 -41.546875 "/></g></g></g><g fill="#f0ebe8" fill-opacity="1"><g transform="translate(658.12059, 714.749918)"><g><path d="M 30.953125 1.015625 C 26.679688 1.015625 22.8125 0.285156 19.34375 -1.171875 C 15.882812 -2.628906 12.929688 -4.628906 10.484375 -7.171875 C 8.046875 -9.722656 6.160156 -12.644531 4.828125 -15.9375 C 3.503906 -19.226562 2.84375 -22.707031 2.84375 -26.375 C 2.84375 -31.46875 3.976562 -36.117188 6.25 -40.328125 C 8.53125 -44.535156 11.789062 -47.910156 16.03125 -50.453125 C 20.28125 -53.003906 25.289062 -54.28125 31.0625 -54.28125 C 36.894531 -54.28125 41.878906 -53.003906 46.015625 -50.453125 C 50.160156 -47.910156 53.335938 -44.550781 55.546875 -40.375 C 57.753906 -36.195312 58.859375 -31.695312 58.859375 -26.875 C 58.859375 -26.0625 58.820312 -25.226562 58.75 -24.375 C 58.6875 -23.53125 58.617188 -22.835938 58.546875 -22.296875 L 17.3125 -22.296875 C 17.582031 -19.585938 18.378906 -17.210938 19.703125 -15.171875 C 21.023438 -13.140625 22.722656 -11.59375 24.796875 -10.53125 C 26.867188 -9.476562 29.09375 -8.953125 31.46875 -8.953125 C 34.175781 -8.953125 36.734375 -9.613281 39.140625 -10.9375 C 41.554688 -12.269531 43.207031 -14.019531 44.09375 -16.1875 L 55.796875 -12.9375 C 54.503906 -10.21875 52.65625 -7.804688 50.25 -5.703125 C 47.84375 -3.597656 45.007812 -1.953125 41.75 -0.765625 C 38.488281 0.421875 34.890625 1.015625 30.953125 1.015625 Z M 17 -30.953125 L 44.90625 -30.953125 C 44.632812 -33.671875 43.867188 -36.03125 42.609375 -38.03125 C 41.359375 -40.03125 39.710938 -41.585938 37.671875 -42.703125 C 35.640625 -43.828125 33.367188 -44.390625 30.859375 -44.390625 C 28.410156 -44.390625 26.1875 -43.828125 24.1875 -42.703125 C 22.1875 -41.585938 20.554688 -40.03125 19.296875 -38.03125 C 18.035156 -36.03125 17.269531 -33.671875 17 -30.953125 Z M 17 -30.953125 "/></g></g></g><g fill="#f0ebe8" fill-opacity="1"><g transform="translate(719.113268, 714.749918)"><g><path d="M 25.859375 1.015625 C 21.316406 1.015625 16.972656 0.269531 12.828125 -1.21875 C 8.691406 -2.71875 5.128906 -4.925781 2.140625 -7.84375 L 7.03125 -16.703125 C 10.21875 -14.117188 13.351562 -12.21875 16.4375 -11 C 19.53125 -9.78125 22.503906 -9.171875 25.359375 -9.171875 C 28.003906 -9.171875 30.125 -9.644531 31.71875 -10.59375 C 33.3125 -11.539062 34.109375 -12.960938 34.109375 -14.859375 C 34.109375 -16.148438 33.664062 -17.148438 32.78125 -17.859375 C 31.90625 -18.578125 30.632812 -19.207031 28.96875 -19.75 C 27.300781 -20.289062 25.28125 -20.90625 22.90625 -21.59375 C 18.96875 -22.875 15.675781 -24.125 13.03125 -25.34375 C 10.382812 -26.570312 8.398438 -28.117188 7.078125 -29.984375 C 5.753906 -31.847656 5.09375 -34.242188 5.09375 -37.171875 C 5.09375 -40.703125 5.988281 -43.738281 7.78125 -46.28125 C 9.582031 -48.820312 12.09375 -50.804688 15.3125 -52.234375 C 18.539062 -53.660156 22.328125 -54.375 26.671875 -54.375 C 30.472656 -54.375 34.070312 -53.78125 37.46875 -52.59375 C 40.863281 -51.40625 43.953125 -49.488281 46.734375 -46.84375 L 41.234375 -38.1875 C 38.523438 -40.289062 35.945312 -41.832031 33.5 -42.8125 C 31.050781 -43.800781 28.570312 -44.296875 26.0625 -44.296875 C 24.632812 -44.296875 23.289062 -44.125 22.03125 -43.78125 C 20.78125 -43.445312 19.765625 -42.890625 18.984375 -42.109375 C 18.203125 -41.328125 17.8125 -40.222656 17.8125 -38.796875 C 17.8125 -37.503906 18.164062 -36.5 18.875 -35.78125 C 19.59375 -35.070312 20.679688 -34.445312 22.140625 -33.90625 C 23.609375 -33.363281 25.394531 -32.753906 27.5 -32.078125 C 31.769531 -30.859375 35.378906 -29.601562 38.328125 -28.3125 C 41.285156 -27.019531 43.507812 -25.4375 45 -23.5625 C 46.5 -21.695312 47.25 -19.140625 47.25 -15.890625 C 47.25 -10.585938 45.3125 -6.441406 41.4375 -3.453125 C 37.570312 -0.472656 32.378906 1.015625 25.859375 1.015625 Z M 25.859375 1.015625 "/></g></g></g><g fill="#f0ebe8" fill-opacity="1"><g transform="translate(769.414396, 714.749918)"><g><path d="M 2.546875 -15.78125 C 2.546875 -19.25 3.507812 -22.285156 5.4375 -24.890625 C 7.375 -27.503906 10.070312 -29.523438 13.53125 -30.953125 C 17 -32.378906 20.972656 -33.09375 25.453125 -33.09375 C 27.691406 -33.09375 29.960938 -32.921875 32.265625 -32.578125 C 34.578125 -32.242188 36.582031 -31.703125 38.28125 -30.953125 L 38.28125 -33.8125 C 38.28125 -37.195312 37.28125 -39.804688 35.28125 -41.640625 C 33.28125 -43.472656 30.3125 -44.390625 26.375 -44.390625 C 23.457031 -44.390625 20.671875 -43.878906 18.015625 -42.859375 C 15.367188 -41.847656 12.585938 -40.359375 9.671875 -38.390625 L 5.296875 -47.34375 C 8.828125 -49.65625 12.441406 -51.390625 16.140625 -52.546875 C 19.835938 -53.703125 23.722656 -54.28125 27.796875 -54.28125 C 35.398438 -54.28125 41.320312 -52.378906 45.5625 -48.578125 C 49.8125 -44.773438 51.9375 -39.34375 51.9375 -32.28125 L 51.9375 -15.28125 C 51.9375 -13.851562 52.1875 -12.832031 52.6875 -12.21875 C 53.195312 -11.601562 54.03125 -11.226562 55.1875 -11.09375 L 55.1875 0 C 53.96875 0.207031 52.863281 0.378906 51.875 0.515625 C 50.894531 0.648438 50.066406 0.71875 49.390625 0.71875 C 46.671875 0.71875 44.613281 0.109375 43.21875 -1.109375 C 41.832031 -2.335938 40.96875 -3.832031 40.625 -5.59375 L 40.328125 -8.34375 C 38.015625 -5.363281 35.125 -3.054688 31.65625 -1.421875 C 28.195312 0.203125 24.671875 1.015625 21.078125 1.015625 C 17.546875 1.015625 14.367188 0.285156 11.546875 -1.171875 C 8.734375 -2.628906 6.53125 -4.628906 4.9375 -7.171875 C 3.34375 -9.722656 2.546875 -12.59375 2.546875 -15.78125 Z M 35.734375 -13.03125 C 36.484375 -13.84375 37.09375 -14.65625 37.5625 -15.46875 C 38.039062 -16.289062 38.28125 -17.039062 38.28125 -17.71875 L 38.28125 -23.109375 C 36.65625 -23.796875 34.890625 -24.320312 32.984375 -24.6875 C 31.085938 -25.0625 29.289062 -25.25 27.59375 -25.25 C 24.0625 -25.25 21.160156 -24.484375 18.890625 -22.953125 C 16.617188 -21.429688 15.484375 -19.414062 15.484375 -16.90625 C 15.484375 -15.539062 15.851562 -14.25 16.59375 -13.03125 C 17.34375 -11.8125 18.429688 -10.828125 19.859375 -10.078125 C 21.285156 -9.328125 22.984375 -8.953125 24.953125 -8.953125 C 26.984375 -8.953125 28.984375 -9.34375 30.953125 -10.125 C 32.921875 -10.90625 34.515625 -11.875 35.734375 -13.03125 Z M 35.734375 -13.03125 "/></g></g></g><g fill="#f0ebe8" fill-opacity="1"><g transform="translate(827.861427, 714.749918)"><g/></g></g><g fill="#f0ebe8" fill-opacity="1"><g transform="translate(852.29923, 714.749918)"><g><path d="M 7.53125 0 L 7.53125 -72.296875 L 21.59375 -72.296875 L 21.59375 -12.328125 L 58.453125 -12.328125 L 58.453125 0 Z M 7.53125 0 "/></g></g></g><g fill="#f0ebe8" fill-opacity="1"><g transform="translate(911.764557, 714.749918)"><g><path d="M 6.21875 0 L 6.21875 -53.359375 L 19.859375 -53.359375 L 19.859375 0 Z M 6.21875 -60.796875 L 6.21875 -74.328125 L 19.859375 -74.328125 L 19.859375 -60.796875 Z M 6.21875 -60.796875 "/></g></g></g><g fill="#f0ebe8" fill-opacity="1"><g transform="translate(937.729734, 714.749918)"><g><path d="M 30.953125 1.015625 C 26.679688 1.015625 22.8125 0.285156 19.34375 -1.171875 C 15.882812 -2.628906 12.929688 -4.628906 10.484375 -7.171875 C 8.046875 -9.722656 6.160156 -12.644531 4.828125 -15.9375 C 3.503906 -19.226562 2.84375 -22.707031 2.84375 -26.375 C 2.84375 -31.46875 3.976562 -36.117188 6.25 -40.328125 C 8.53125 -44.535156 11.789062 -47.910156 16.03125 -50.453125 C 20.28125 -53.003906 25.289062 -54.28125 31.0625 -54.28125 C 36.894531 -54.28125 41.878906 -53.003906 46.015625 -50.453125 C 50.160156 -47.910156 53.335938 -44.550781 55.546875 -40.375 C 57.753906 -36.195312 58.859375 -31.695312 58.859375 -26.875 C 58.859375 -26.0625 58.820312 -25.226562 58.75 -24.375 C 58.6875 -23.53125 58.617188 -22.835938 58.546875 -22.296875 L 17.3125 -22.296875 C 17.582031 -19.585938 18.378906 -17.210938 19.703125 -15.171875 C 21.023438 -13.140625 22.722656 -11.59375 24.796875 -10.53125 C 26.867188 -9.476562 29.09375 -8.953125 31.46875 -8.953125 C 34.175781 -8.953125 36.734375 -9.613281 39.140625 -10.9375 C 41.554688 -12.269531 43.207031 -14.019531 44.09375 -16.1875 L 55.796875 -12.9375 C 54.503906 -10.21875 52.65625 -7.804688 50.25 -5.703125 C 47.84375 -3.597656 45.007812 -1.953125 41.75 -0.765625 C 38.488281 0.421875 34.890625 1.015625 30.953125 1.015625 Z M 17 -30.953125 L 44.90625 -30.953125 C 44.632812 -33.671875 43.867188 -36.03125 42.609375 -38.03125 C 41.359375 -40.03125 39.710938 -41.585938 37.671875 -42.703125 C 35.640625 -43.828125 33.367188 -44.390625 30.859375 -44.390625 C 28.410156 -44.390625 26.1875 -43.828125 24.1875 -42.703125 C 22.1875 -41.585938 20.554688 -40.03125 19.296875 -38.03125 C 18.035156 -36.03125 17.269531 -33.671875 17 -30.953125 Z M 17 -30.953125 "/></g></g></g><g fill="#f0ebe8" fill-opacity="1"><g transform="translate(998.722389, 714.749918)"><g><path d="M 36.5625 1.015625 C 32.488281 1.015625 28.851562 0.0976562 25.65625 -1.734375 C 22.46875 -3.566406 19.957031 -6.078125 18.125 -9.265625 L 18.125 0 L 6.21875 0 L 6.21875 -74.328125 L 19.859375 -74.328125 L 19.859375 -43.984375 C 21.753906 -47.179688 24.242188 -49.695312 27.328125 -51.53125 C 30.421875 -53.363281 34.039062 -54.28125 38.1875 -54.28125 C 41.644531 -54.28125 44.800781 -53.546875 47.65625 -52.078125 C 50.507812 -50.617188 52.96875 -48.597656 55.03125 -46.015625 C 57.101562 -43.441406 58.695312 -40.488281 59.8125 -37.15625 C 60.9375 -33.832031 61.5 -30.269531 61.5 -26.46875 C 61.5 -22.664062 60.867188 -19.101562 59.609375 -15.78125 C 58.359375 -12.457031 56.613281 -9.519531 54.375 -6.96875 C 52.132812 -4.425781 49.503906 -2.457031 46.484375 -1.0625 C 43.460938 0.320312 40.15625 1.015625 36.5625 1.015625 Z M 32.78125 -10.59375 C 34.957031 -10.59375 36.941406 -11.015625 38.734375 -11.859375 C 40.535156 -12.710938 42.097656 -13.847656 43.421875 -15.265625 C 44.753906 -16.691406 45.773438 -18.375 46.484375 -20.3125 C 47.191406 -22.25 47.546875 -24.269531 47.546875 -26.375 C 47.546875 -29.289062 46.953125 -31.988281 45.765625 -34.46875 C 44.578125 -36.945312 42.945312 -38.929688 40.875 -40.421875 C 38.8125 -41.921875 36.390625 -42.671875 33.609375 -42.671875 C 31.640625 -42.671875 29.753906 -42.210938 27.953125 -41.296875 C 26.148438 -40.378906 24.550781 -39.140625 23.15625 -37.578125 C 21.769531 -36.015625 20.671875 -34.25 19.859375 -32.28125 L 19.859375 -19.546875 C 20.265625 -18.191406 20.925781 -16.96875 21.84375 -15.875 C 22.757812 -14.789062 23.828125 -13.859375 25.046875 -13.078125 C 26.265625 -12.296875 27.535156 -11.6875 28.859375 -11.25 C 30.191406 -10.8125 31.5 -10.59375 32.78125 -10.59375 Z M 32.78125 -10.59375 "/></g></g></g><g fill="#f0ebe8" fill-opacity="1"><g transform="translate(1063.278917, 714.749918)"><g><path d="M 6.21875 0 L 6.21875 -53.359375 L 19.859375 -53.359375 L 19.859375 0 Z M 6.21875 -60.796875 L 6.21875 -74.328125 L 19.859375 -74.328125 L 19.859375 -60.796875 Z M 6.21875 -60.796875 "/></g></g></g><g fill="#f0ebe8" fill-opacity="1"><g transform="translate(1089.244048, 714.749918)"><g><path d="M 31.0625 1.015625 C 26.71875 1.015625 22.8125 0.285156 19.34375 -1.171875 C 15.882812 -2.628906 12.929688 -4.664062 10.484375 -7.28125 C 8.046875 -9.894531 6.160156 -12.863281 4.828125 -16.1875 C 3.503906 -19.519531 2.84375 -23.015625 2.84375 -26.671875 C 2.84375 -31.703125 3.976562 -36.300781 6.25 -40.46875 C 8.53125 -44.644531 11.773438 -47.988281 15.984375 -50.5 C 20.191406 -53.019531 25.179688 -54.28125 30.953125 -54.28125 C 36.722656 -54.28125 41.675781 -53.019531 45.8125 -50.5 C 49.957031 -47.988281 53.050781 -44.695312 55.09375 -40.625 L 41.75 -36.5625 C 40.59375 -38.53125 39.0625 -40.039062 37.15625 -41.09375 C 35.257812 -42.144531 33.160156 -42.671875 30.859375 -42.671875 C 28.273438 -42.671875 25.910156 -42.003906 23.765625 -40.671875 C 21.628906 -39.347656 19.953125 -37.484375 18.734375 -35.078125 C 17.515625 -32.671875 16.90625 -29.867188 16.90625 -26.671875 C 16.90625 -23.554688 17.53125 -20.789062 18.78125 -18.375 C 20.039062 -15.96875 21.722656 -14.066406 23.828125 -12.671875 C 25.929688 -11.285156 28.273438 -10.59375 30.859375 -10.59375 C 32.484375 -10.59375 34.023438 -10.863281 35.484375 -11.40625 C 36.941406 -11.945312 38.25 -12.691406 39.40625 -13.640625 C 40.5625 -14.597656 41.410156 -15.6875 41.953125 -16.90625 L 55.296875 -12.828125 C 54.066406 -10.179688 52.28125 -7.804688 49.9375 -5.703125 C 47.601562 -3.597656 44.859375 -1.953125 41.703125 -0.765625 C 38.546875 0.421875 35 1.015625 31.0625 1.015625 Z M 31.0625 1.015625 "/></g></g></g><g fill="#f0ebe8" fill-opacity="1"><g transform="translate(1146.672876, 714.749918)"><g><path d="M 55.796875 0 L 42.15625 0 L 42.15625 -29.9375 C 42.15625 -34.082031 41.359375 -37.171875 39.765625 -39.203125 C 38.171875 -41.242188 35.984375 -42.265625 33.203125 -42.265625 C 31.566406 -42.265625 29.832031 -41.785156 28 -40.828125 C 26.164062 -39.878906 24.519531 -38.570312 23.0625 -36.90625 C 21.601562 -35.25 20.535156 -33.332031 19.859375 -31.15625 L 19.859375 0 L 6.21875 0 L 6.21875 -74.328125 L 19.859375 -74.328125 L 19.859375 -43.484375 C 21.828125 -46.878906 24.507812 -49.523438 27.90625 -51.421875 C 31.300781 -53.328125 35 -54.28125 39 -54.28125 C 42.457031 -54.28125 45.269531 -53.679688 47.4375 -52.484375 C 49.613281 -51.296875 51.3125 -49.703125 52.53125 -47.703125 C 53.757812 -45.703125 54.609375 -43.460938 55.078125 -40.984375 C 55.554688 -38.503906 55.796875 -35.941406 55.796875 -33.296875 Z M 55.796875 0 "/></g></g></g><g fill="#f0ebe8" fill-opacity="1"><g transform="translate(1208.185003, 714.749918)"><g/></g></g><g fill="#f0ebe8" fill-opacity="1"><g transform="translate(433.90382, 857.249906)"><g><path d="M 3.96875 -36.65625 C 3.96875 -41.070312 4.726562 -45.398438 6.25 -49.640625 C 7.78125 -53.878906 10.019531 -57.75 12.96875 -61.25 C 15.925781 -64.75 19.546875 -67.53125 23.828125 -69.59375 C 28.109375 -71.664062 32.960938 -72.703125 38.390625 -72.703125 C 44.835938 -72.703125 50.367188 -71.222656 54.984375 -68.265625 C 59.597656 -65.316406 63.023438 -61.535156 65.265625 -56.921875 L 58.046875 -52.234375 C 56.617188 -55.285156 54.800781 -57.710938 52.59375 -59.515625 C 50.382812 -61.316406 48.003906 -62.585938 45.453125 -63.328125 C 42.910156 -64.078125 40.421875 -64.453125 37.984375 -64.453125 C 33.972656 -64.453125 30.421875 -63.632812 27.328125 -62 C 24.242188 -60.375 21.648438 -58.203125 19.546875 -55.484375 C 17.441406 -52.773438 15.863281 -49.738281 14.8125 -46.375 C 13.757812 -43.019531 13.234375 -39.644531 13.234375 -36.25 C 13.234375 -32.519531 13.859375 -28.921875 15.109375 -25.453125 C 16.367188 -21.992188 18.117188 -18.941406 20.359375 -16.296875 C 22.597656 -13.648438 25.242188 -11.546875 28.296875 -9.984375 C 31.359375 -8.421875 34.6875 -7.640625 38.28125 -7.640625 C 40.800781 -7.640625 43.382812 -8.078125 46.03125 -8.953125 C 48.675781 -9.835938 51.148438 -11.210938 53.453125 -13.078125 C 55.765625 -14.953125 57.597656 -17.378906 58.953125 -20.359375 L 66.59375 -16.1875 C 65.101562 -12.59375 62.796875 -9.539062 59.671875 -7.03125 C 56.546875 -4.519531 53.066406 -2.617188 49.234375 -1.328125 C 45.398438 -0.0351562 41.613281 0.609375 37.875 0.609375 C 32.925781 0.609375 28.378906 -0.457031 24.234375 -2.59375 C 20.097656 -4.726562 16.515625 -7.578125 13.484375 -11.140625 C 10.460938 -14.710938 8.117188 -18.71875 6.453125 -23.15625 C 4.796875 -27.601562 3.96875 -32.101562 3.96875 -36.65625 Z M 3.96875 -36.65625 "/></g></g></g><g fill="#f0ebe8" fill-opacity="1"><g transform="translate(503.34789, 857.249906)"><g><path d="M 30.453125 1.015625 C 26.441406 1.015625 22.804688 0.285156 19.546875 -1.171875 C 16.285156 -2.628906 13.46875 -4.628906 11.09375 -7.171875 C 8.71875 -9.722656 6.882812 -12.660156 5.59375 -15.984375 C 4.3125 -19.316406 3.671875 -22.8125 3.671875 -26.46875 C 3.671875 -30.207031 4.3125 -33.738281 5.59375 -37.0625 C 6.882812 -40.394531 8.71875 -43.332031 11.09375 -45.875 C 13.46875 -48.414062 16.300781 -50.414062 19.59375 -51.875 C 22.894531 -53.34375 26.546875 -54.078125 30.546875 -54.078125 C 34.484375 -54.078125 38.082031 -53.34375 41.34375 -51.875 C 44.601562 -50.414062 47.4375 -48.414062 49.84375 -45.875 C 52.25 -43.332031 54.097656 -40.394531 55.390625 -37.0625 C 56.679688 -33.738281 57.328125 -30.207031 57.328125 -26.46875 C 57.328125 -22.8125 56.679688 -19.316406 55.390625 -15.984375 C 54.097656 -12.660156 52.265625 -9.722656 49.890625 -7.171875 C 47.515625 -4.628906 44.679688 -2.628906 41.390625 -1.171875 C 38.097656 0.285156 34.453125 1.015625 30.453125 1.015625 Z M 12.828125 -26.375 C 12.828125 -22.707031 13.625 -19.378906 15.21875 -16.390625 C 16.8125 -13.398438 18.929688 -11.039062 21.578125 -9.3125 C 24.234375 -7.582031 27.191406 -6.71875 30.453125 -6.71875 C 33.703125 -6.71875 36.664062 -7.597656 39.34375 -9.359375 C 42.03125 -11.128906 44.171875 -13.523438 45.765625 -16.546875 C 47.367188 -19.566406 48.171875 -22.910156 48.171875 -26.578125 C 48.171875 -30.242188 47.367188 -33.566406 45.765625 -36.546875 C 44.171875 -39.535156 42.03125 -41.910156 39.34375 -43.671875 C 36.664062 -45.441406 33.703125 -46.328125 30.453125 -46.328125 C 27.191406 -46.328125 24.234375 -45.425781 21.578125 -43.625 C 18.929688 -41.832031 16.8125 -39.441406 15.21875 -36.453125 C 13.625 -33.460938 12.828125 -30.101562 12.828125 -26.375 Z M 12.828125 -26.375 "/></g></g></g><g fill="#f0ebe8" fill-opacity="1"><g transform="translate(564.340557, 857.249906)"><g><path d="M 3.0625 -15.375 C 3.0625 -18.769531 4.023438 -21.707031 5.953125 -24.1875 C 7.890625 -26.664062 10.554688 -28.582031 13.953125 -29.9375 C 17.347656 -31.289062 21.285156 -31.96875 25.765625 -31.96875 C 28.140625 -31.96875 30.648438 -31.78125 33.296875 -31.40625 C 35.941406 -31.039062 38.285156 -30.484375 40.328125 -29.734375 L 40.328125 -33.609375 C 40.328125 -37.679688 39.101562 -40.882812 36.65625 -43.21875 C 34.21875 -45.5625 30.753906 -46.734375 26.265625 -46.734375 C 23.347656 -46.734375 20.546875 -46.207031 17.859375 -45.15625 C 15.179688 -44.101562 12.351562 -42.59375 9.375 -40.625 L 6.109375 -46.9375 C 9.566406 -49.3125 13.023438 -51.09375 16.484375 -52.28125 C 19.953125 -53.476562 23.554688 -54.078125 27.296875 -54.078125 C 34.078125 -54.078125 39.4375 -52.191406 43.375 -48.421875 C 47.3125 -44.648438 49.28125 -39.40625 49.28125 -32.6875 L 49.28125 -10.1875 C 49.28125 -9.09375 49.5 -8.289062 49.9375 -7.78125 C 50.382812 -7.28125 51.117188 -6.992188 52.140625 -6.921875 L 52.140625 0 C 51.253906 0.132812 50.488281 0.234375 49.84375 0.296875 C 49.195312 0.367188 48.671875 0.40625 48.265625 0.40625 C 46.160156 0.40625 44.582031 -0.171875 43.53125 -1.328125 C 42.476562 -2.484375 41.882812 -3.703125 41.75 -4.984375 L 41.546875 -8.34375 C 39.234375 -5.363281 36.207031 -3.054688 32.46875 -1.421875 C 28.738281 0.203125 25.046875 1.015625 21.390625 1.015625 C 17.859375 1.015625 14.695312 0.285156 11.90625 -1.171875 C 9.125 -2.628906 6.953125 -4.597656 5.390625 -7.078125 C 3.835938 -9.554688 3.0625 -12.320312 3.0625 -15.375 Z M 37.671875 -11.609375 C 38.484375 -12.554688 39.128906 -13.519531 39.609375 -14.5 C 40.085938 -15.488281 40.328125 -16.320312 40.328125 -17 L 40.328125 -23.625 C 38.222656 -24.4375 36.015625 -25.0625 33.703125 -25.5 C 31.398438 -25.945312 29.125 -26.171875 26.875 -26.171875 C 22.332031 -26.171875 18.648438 -25.269531 15.828125 -23.46875 C 13.015625 -21.664062 11.609375 -19.207031 11.609375 -16.09375 C 11.609375 -14.394531 12.066406 -12.742188 12.984375 -11.140625 C 13.898438 -9.546875 15.253906 -8.238281 17.046875 -7.21875 C 18.847656 -6.207031 21.070312 -5.703125 23.71875 -5.703125 C 26.507812 -5.703125 29.160156 -6.257812 31.671875 -7.375 C 34.179688 -8.5 36.179688 -9.910156 37.671875 -11.609375 Z M 37.671875 -11.609375 "/></g></g></g><g fill="#f0ebe8" fill-opacity="1"><g transform="translate(620.751136, 857.249906)"><g><path d="M 30.75 1.015625 C 26.75 1.015625 23.097656 0.285156 19.796875 -1.171875 C 16.503906 -2.628906 13.65625 -4.644531 11.25 -7.21875 C 8.84375 -9.800781 6.976562 -12.753906 5.65625 -16.078125 C 4.332031 -19.410156 3.671875 -22.941406 3.671875 -26.671875 C 3.671875 -31.703125 4.789062 -36.285156 7.03125 -40.421875 C 9.269531 -44.566406 12.425781 -47.878906 16.5 -50.359375 C 20.570312 -52.835938 25.289062 -54.078125 30.65625 -54.078125 C 35.875 -54.078125 40.4375 -52.90625 44.34375 -50.5625 C 48.25 -48.21875 51.148438 -45.078125 53.046875 -41.140625 L 44.296875 -38.390625 C 42.941406 -40.898438 41.039062 -42.847656 38.59375 -44.234375 C 36.144531 -45.628906 33.429688 -46.328125 30.453125 -46.328125 C 27.191406 -46.328125 24.21875 -45.476562 21.53125 -43.78125 C 18.851562 -42.082031 16.734375 -39.753906 15.171875 -36.796875 C 13.609375 -33.847656 12.828125 -30.472656 12.828125 -26.671875 C 12.828125 -22.941406 13.625 -19.566406 15.21875 -16.546875 C 16.8125 -13.523438 18.945312 -11.128906 21.625 -9.359375 C 24.3125 -7.597656 27.285156 -6.71875 30.546875 -6.71875 C 32.648438 -6.71875 34.671875 -7.085938 36.609375 -7.828125 C 38.546875 -8.578125 40.242188 -9.582031 41.703125 -10.84375 C 43.160156 -12.101562 44.160156 -13.476562 44.703125 -14.96875 L 53.453125 -12.328125 C 52.367188 -9.742188 50.722656 -7.445312 48.515625 -5.4375 C 46.316406 -3.4375 43.707031 -1.859375 40.6875 -0.703125 C 37.664062 0.441406 34.351562 1.015625 30.75 1.015625 Z M 30.75 1.015625 "/></g></g></g><g fill="#f0ebe8" fill-opacity="1"><g transform="translate(677.161703, 857.249906)"><g><path d="M 53.359375 0 L 44.390625 0 L 44.390625 -29.734375 C 44.390625 -35.160156 43.421875 -39.234375 41.484375 -41.953125 C 39.554688 -44.671875 36.796875 -46.03125 33.203125 -46.03125 C 30.890625 -46.03125 28.5625 -45.414062 26.21875 -44.1875 C 23.875 -42.96875 21.816406 -41.320312 20.046875 -39.25 C 18.285156 -37.1875 17 -34.796875 16.1875 -32.078125 L 16.1875 0 L 7.234375 0 L 7.234375 -74.328125 L 16.1875 -74.328125 L 16.1875 -41.75 C 18.289062 -45.550781 21.160156 -48.554688 24.796875 -50.765625 C 28.429688 -52.972656 32.351562 -54.078125 36.5625 -54.078125 C 39.75 -54.078125 42.410156 -53.515625 44.546875 -52.390625 C 46.679688 -51.265625 48.394531 -49.679688 49.6875 -47.640625 C 50.976562 -45.609375 51.910156 -43.253906 52.484375 -40.578125 C 53.066406 -37.898438 53.359375 -34.960938 53.359375 -31.765625 Z M 53.359375 0 "/></g></g></g><g fill="#f0ebe8" fill-opacity="1"><g transform="translate(737.237962, 857.249906)"><g><path d="M 7.234375 0 L 7.234375 -53.15625 L 16.1875 -53.15625 L 16.1875 0 Z M 7.234375 -63.140625 L 7.234375 -74.328125 L 16.1875 -74.328125 L 16.1875 -63.140625 Z M 7.234375 -63.140625 "/></g></g></g><g fill="#f0ebe8" fill-opacity="1"><g transform="translate(760.657515, 857.249906)"><g><path d="M 53.359375 0 L 44.390625 0 L 44.390625 -29.734375 C 44.390625 -35.367188 43.523438 -39.492188 41.796875 -42.109375 C 40.066406 -44.722656 37.4375 -46.03125 33.90625 -46.03125 C 31.46875 -46.03125 29.039062 -45.414062 26.625 -44.1875 C 24.21875 -42.96875 22.078125 -41.320312 20.203125 -39.25 C 18.335938 -37.1875 17 -34.796875 16.1875 -32.078125 L 16.1875 0 L 7.234375 0 L 7.234375 -53.15625 L 15.375 -53.15625 L 15.375 -41.75 C 16.800781 -44.257812 18.632812 -46.429688 20.875 -48.265625 C 23.113281 -50.097656 25.65625 -51.523438 28.5 -52.546875 C 31.351562 -53.566406 34.34375 -54.078125 37.46875 -54.078125 C 40.53125 -54.078125 43.09375 -53.515625 45.15625 -52.390625 C 47.226562 -51.265625 48.859375 -49.703125 50.046875 -47.703125 C 51.234375 -45.703125 52.082031 -43.34375 52.59375 -40.625 C 53.101562 -37.914062 53.359375 -34.960938 53.359375 -31.765625 Z M 53.359375 0 "/></g></g></g><g fill="#f0ebe8" fill-opacity="1"><g transform="translate(820.733774, 857.249906)"><g><path d="M 28.40625 0.609375 C 24.8125 0.609375 21.503906 -0.117188 18.484375 -1.578125 C 15.460938 -3.035156 12.863281 -5.035156 10.6875 -7.578125 C 8.519531 -10.128906 6.84375 -13.035156 5.65625 -16.296875 C 4.46875 -19.554688 3.875 -22.945312 3.875 -26.46875 C 3.875 -30.207031 4.46875 -33.738281 5.65625 -37.0625 C 6.84375 -40.394531 8.535156 -43.332031 10.734375 -45.875 C 12.941406 -48.414062 15.539062 -50.414062 18.53125 -51.875 C 21.519531 -53.34375 24.847656 -54.078125 28.515625 -54.078125 C 32.921875 -54.078125 36.769531 -52.988281 40.0625 -50.8125 C 43.363281 -48.632812 46.132812 -45.882812 48.375 -42.5625 L 48.375 -53.15625 L 56.3125 -53.15625 L 56.3125 -0.609375 C 56.3125 4.410156 55.101562 8.648438 52.6875 12.109375 C 50.28125 15.578125 47.023438 18.207031 42.921875 20 C 38.816406 21.800781 34.25 22.703125 29.21875 22.703125 C 23.25 22.703125 18.363281 21.648438 14.5625 19.546875 C 10.757812 17.441406 7.601562 14.59375 5.09375 11 L 10.28125 6.421875 C 12.382812 9.535156 15.113281 11.875 18.46875 13.4375 C 21.832031 15 25.414062 15.78125 29.21875 15.78125 C 32.476562 15.78125 35.484375 15.1875 38.234375 14 C 40.984375 12.8125 43.1875 10.992188 44.84375 8.546875 C 46.507812 6.109375 47.34375 3.054688 47.34375 -0.609375 L 47.34375 -9.984375 C 45.375 -6.722656 42.675781 -4.140625 39.25 -2.234375 C 35.820312 -0.335938 32.207031 0.609375 28.40625 0.609375 Z M 31.15625 -6.71875 C 33.0625 -6.71875 34.894531 -7.054688 36.65625 -7.734375 C 38.425781 -8.410156 40.054688 -9.3125 41.546875 -10.4375 C 43.035156 -11.5625 44.289062 -12.832031 45.3125 -14.25 C 46.332031 -15.675781 47.007812 -17.140625 47.34375 -18.640625 L 47.34375 -33.90625 C 46.394531 -36.351562 45.035156 -38.507812 43.265625 -40.375 C 41.503906 -42.238281 39.503906 -43.695312 37.265625 -44.75 C 35.023438 -45.800781 32.71875 -46.328125 30.34375 -46.328125 C 27.625 -46.328125 25.195312 -45.75 23.0625 -44.59375 C 20.925781 -43.445312 19.109375 -41.90625 17.609375 -39.96875 C 16.117188 -38.03125 14.96875 -35.875 14.15625 -33.5 C 13.34375 -31.125 12.9375 -28.710938 12.9375 -26.265625 C 12.9375 -23.617188 13.410156 -21.125 14.359375 -18.78125 C 15.304688 -16.445312 16.59375 -14.363281 18.21875 -12.53125 C 19.851562 -10.695312 21.789062 -9.269531 24.03125 -8.25 C 26.269531 -7.226562 28.644531 -6.71875 31.15625 -6.71875 Z M 31.15625 -6.71875 "/></g></g></g><g fill="#f0ebe8" fill-opacity="1"><g transform="translate(884.272052, 857.249906)"><g/></g></g><g fill="#f0ebe8" fill-opacity="1"><g transform="translate(910.03357, 857.249906)"><g><path d="M 57.03125 0 L 21.59375 -37.375 C 18.664062 -40.5 16.335938 -43.160156 14.609375 -45.359375 C 12.878906 -47.566406 11.640625 -49.570312 10.890625 -51.375 C 10.148438 -53.175781 9.78125 -55.023438 9.78125 -56.921875 C 9.78125 -60.046875 10.59375 -62.828125 12.21875 -65.265625 C 13.84375 -67.710938 16.0625 -69.648438 18.875 -71.078125 C 21.695312 -72.503906 24.875 -73.21875 28.40625 -73.21875 C 31.664062 -73.21875 34.617188 -72.625 37.265625 -71.4375 C 39.910156 -70.25 42.03125 -68.550781 43.625 -66.34375 C 45.226562 -64.132812 46.03125 -61.503906 46.03125 -58.453125 C 46.03125 -55.328125 45.179688 -52.554688 43.484375 -50.140625 C 41.785156 -47.734375 39.5625 -45.492188 36.8125 -43.421875 C 34.0625 -41.359375 31.023438 -39.273438 27.703125 -37.171875 C 24.984375 -35.398438 22.519531 -33.597656 20.3125 -31.765625 C 18.101562 -29.929688 16.367188 -27.976562 15.109375 -25.90625 C 13.859375 -23.84375 13.234375 -21.554688 13.234375 -19.046875 C 13.234375 -16.328125 13.976562 -14 15.46875 -12.0625 C 16.96875 -10.132812 18.921875 -8.660156 21.328125 -7.640625 C 23.742188 -6.617188 26.273438 -6.109375 28.921875 -6.109375 C 32.378906 -6.109375 35.601562 -6.90625 38.59375 -8.5 C 41.582031 -10.09375 44.210938 -12.316406 46.484375 -15.171875 C 48.753906 -18.023438 50.515625 -21.332031 51.765625 -25.09375 C 53.023438 -28.863281 53.65625 -32.921875 53.65625 -37.265625 L 61.09375 -37.265625 C 61.09375 -31.703125 60.226562 -26.59375 58.5 -21.9375 C 56.769531 -17.289062 54.394531 -13.253906 51.375 -9.828125 C 48.351562 -6.398438 44.835938 -3.734375 40.828125 -1.828125 C 36.828125 0.0664062 32.550781 1.015625 28 1.015625 C 23.59375 1.015625 19.601562 0.132812 16.03125 -1.625 C 12.46875 -3.394531 9.664062 -5.789062 7.625 -8.8125 C 5.59375 -11.832031 4.578125 -15.273438 4.578125 -19.140625 C 4.578125 -22.878906 5.441406 -26.15625 7.171875 -28.96875 C 8.910156 -31.789062 11.15625 -34.300781 13.90625 -36.5 C 16.65625 -38.707031 19.488281 -40.726562 22.40625 -42.5625 C 25.382812 -44.46875 28.03125 -46.21875 30.34375 -47.8125 C 32.65625 -49.40625 34.472656 -51.050781 35.796875 -52.75 C 37.117188 -54.445312 37.78125 -56.28125 37.78125 -58.25 C 37.78125 -60.625 36.894531 -62.570312 35.125 -64.09375 C 33.363281 -65.625 31.125 -66.390625 28.40625 -66.390625 C 26.375 -66.390625 24.578125 -65.960938 23.015625 -65.109375 C 21.453125 -64.265625 20.226562 -63.144531 19.34375 -61.75 C 18.46875 -60.363281 18.03125 -58.820312 18.03125 -57.125 C 18.03125 -56.039062 18.300781 -54.921875 18.84375 -53.765625 C 19.382812 -52.609375 20.414062 -51.144531 21.9375 -49.375 C 23.46875 -47.613281 25.625 -45.242188 28.40625 -42.265625 L 68.828125 0 Z M 57.03125 0 "/></g></g></g><g fill="#f0ebe8" fill-opacity="1"><g transform="translate(979.375789, 857.249906)"><g/></g></g><g fill="#f0ebe8" fill-opacity="1"><g transform="translate(1005.137307, 857.249906)"><g><path d="M 64.15625 -18.640625 C 64.15625 -14.898438 63.203125 -11.640625 61.296875 -8.859375 C 59.398438 -6.078125 56.835938 -3.90625 53.609375 -2.34375 C 50.390625 -0.78125 46.84375 0 42.96875 0 L 8.65625 0 L 8.65625 -72.296875 L 44.59375 -72.296875 C 47.988281 -72.296875 50.925781 -71.394531 53.40625 -69.59375 C 55.882812 -67.800781 57.785156 -65.492188 59.109375 -62.671875 C 60.429688 -59.859375 61.09375 -56.921875 61.09375 -53.859375 C 61.09375 -50.335938 60.191406 -47.03125 58.390625 -43.9375 C 56.597656 -40.851562 54.035156 -38.5625 50.703125 -37.0625 C 54.847656 -35.84375 58.125 -33.585938 60.53125 -30.296875 C 62.945312 -27.003906 64.15625 -23.117188 64.15625 -18.640625 Z M 54.890625 -20.265625 C 54.890625 -22.503906 54.394531 -24.570312 53.40625 -26.46875 C 52.425781 -28.375 51.101562 -29.898438 49.4375 -31.046875 C 47.769531 -32.203125 45.851562 -32.78125 43.6875 -32.78125 L 17.8125 -32.78125 L 17.8125 -7.9375 L 42.96875 -7.9375 C 45.207031 -7.9375 47.226562 -8.515625 49.03125 -9.671875 C 50.832031 -10.828125 52.257812 -12.335938 53.3125 -14.203125 C 54.363281 -16.066406 54.890625 -18.085938 54.890625 -20.265625 Z M 17.8125 -64.359375 L 17.8125 -40.21875 L 40.828125 -40.21875 C 43.003906 -40.21875 44.921875 -40.757812 46.578125 -41.84375 C 48.242188 -42.9375 49.566406 -44.398438 50.546875 -46.234375 C 51.535156 -48.066406 52.03125 -50.066406 52.03125 -52.234375 C 52.03125 -54.546875 51.570312 -56.597656 50.65625 -58.390625 C 49.738281 -60.191406 48.484375 -61.632812 46.890625 -62.71875 C 45.296875 -63.8125 43.476562 -64.359375 41.4375 -64.359375 Z M 17.8125 -64.359375 "/></g></g></g><g fill="#f0ebe8" fill-opacity="1"><g transform="translate(1073.461322, 857.249906)"><g><path d="M 30.75 1.015625 C 26.75 1.015625 23.097656 0.285156 19.796875 -1.171875 C 16.503906 -2.628906 13.65625 -4.628906 11.25 -7.171875 C 8.84375 -9.722656 6.976562 -12.660156 5.65625 -15.984375 C 4.332031 -19.316406 3.671875 -22.847656 3.671875 -26.578125 C 3.671875 -31.597656 4.820312 -36.175781 7.125 -40.3125 C 9.4375 -44.457031 12.644531 -47.785156 16.75 -50.296875 C 20.851562 -52.816406 25.554688 -54.078125 30.859375 -54.078125 C 36.210938 -54.078125 40.875 -52.800781 44.84375 -50.25 C 48.820312 -47.707031 51.914062 -44.378906 54.125 -40.265625 C 56.332031 -36.160156 57.4375 -31.734375 57.4375 -26.984375 C 57.4375 -26.304688 57.414062 -25.644531 57.375 -25 C 57.34375 -24.351562 57.296875 -23.859375 57.234375 -23.515625 L 13.140625 -23.515625 C 13.410156 -20.054688 14.375 -16.984375 16.03125 -14.296875 C 17.695312 -11.617188 19.851562 -9.515625 22.5 -7.984375 C 25.144531 -6.460938 28 -5.703125 31.0625 -5.703125 C 34.320312 -5.703125 37.390625 -6.515625 40.265625 -8.140625 C 43.148438 -9.773438 45.140625 -11.914062 46.234375 -14.5625 L 53.96875 -12.421875 C 52.8125 -9.835938 51.097656 -7.523438 48.828125 -5.484375 C 46.554688 -3.453125 43.875 -1.859375 40.78125 -0.703125 C 37.695312 0.441406 34.351562 1.015625 30.75 1.015625 Z M 12.828125 -29.734375 L 49.078125 -29.734375 C 48.804688 -33.191406 47.820312 -36.242188 46.125 -38.890625 C 44.425781 -41.546875 42.253906 -43.617188 39.609375 -45.109375 C 36.960938 -46.597656 34.046875 -47.34375 30.859375 -47.34375 C 27.734375 -47.34375 24.847656 -46.597656 22.203125 -45.109375 C 19.554688 -43.617188 17.398438 -41.546875 15.734375 -38.890625 C 14.066406 -36.242188 13.097656 -33.191406 12.828125 -29.734375 Z M 12.828125 -29.734375 "/></g></g></g><g fill="#f0ebe8" fill-opacity="1"><g transform="translate(1133.639387, 857.249906)"><g><path d="M 35.328125 -45.3125 C 30.847656 -45.25 26.894531 -44.113281 23.46875 -41.90625 C 20.039062 -39.695312 17.613281 -36.65625 16.1875 -32.78125 L 16.1875 0 L 7.234375 0 L 7.234375 -53.15625 L 15.578125 -53.15625 L 15.578125 -40.828125 C 17.410156 -44.492188 19.835938 -47.460938 22.859375 -49.734375 C 25.878906 -52.015625 29.050781 -53.289062 32.375 -53.5625 C 33.0625 -53.5625 33.640625 -53.5625 34.109375 -53.5625 C 34.585938 -53.5625 34.992188 -53.523438 35.328125 -53.453125 Z M 35.328125 -45.3125 "/></g></g></g><g fill="#f0ebe8" fill-opacity="1"><g transform="translate(1170.601557, 857.249906)"><g><path d="M 3.0625 -15.375 C 3.0625 -18.769531 4.023438 -21.707031 5.953125 -24.1875 C 7.890625 -26.664062 10.554688 -28.582031 13.953125 -29.9375 C 17.347656 -31.289062 21.285156 -31.96875 25.765625 -31.96875 C 28.140625 -31.96875 30.648438 -31.78125 33.296875 -31.40625 C 35.941406 -31.039062 38.285156 -30.484375 40.328125 -29.734375 L 40.328125 -33.609375 C 40.328125 -37.679688 39.101562 -40.882812 36.65625 -43.21875 C 34.21875 -45.5625 30.753906 -46.734375 26.265625 -46.734375 C 23.347656 -46.734375 20.546875 -46.207031 17.859375 -45.15625 C 15.179688 -44.101562 12.351562 -42.59375 9.375 -40.625 L 6.109375 -46.9375 C 9.566406 -49.3125 13.023438 -51.09375 16.484375 -52.28125 C 19.953125 -53.476562 23.554688 -54.078125 27.296875 -54.078125 C 34.078125 -54.078125 39.4375 -52.191406 43.375 -48.421875 C 47.3125 -44.648438 49.28125 -39.40625 49.28125 -32.6875 L 49.28125 -10.1875 C 49.28125 -9.09375 49.5 -8.289062 49.9375 -7.78125 C 50.382812 -7.28125 51.117188 -6.992188 52.140625 -6.921875 L 52.140625 0 C 51.253906 0.132812 50.488281 0.234375 49.84375 0.296875 C 49.195312 0.367188 48.671875 0.40625 48.265625 0.40625 C 46.160156 0.40625 44.582031 -0.171875 43.53125 -1.328125 C 42.476562 -2.484375 41.882812 -3.703125 41.75 -4.984375 L 41.546875 -8.34375 C 39.234375 -5.363281 36.207031 -3.054688 32.46875 -1.421875 C 28.738281 0.203125 25.046875 1.015625 21.390625 1.015625 C 17.859375 1.015625 14.695312 0.285156 11.90625 -1.171875 C 9.125 -2.628906 6.953125 -4.597656 5.390625 -7.078125 C 3.835938 -9.554688 3.0625 -12.320312 3.0625 -15.375 Z M 37.671875 -11.609375 C 38.484375 -12.554688 39.128906 -13.519531 39.609375 -14.5 C 40.085938 -15.488281 40.328125 -16.320312 40.328125 -17 L 40.328125 -23.625 C 38.222656 -24.4375 36.015625 -25.0625 33.703125 -25.5 C 31.398438 -25.945312 29.125 -26.171875 26.875 -26.171875 C 22.332031 -26.171875 18.648438 -25.269531 15.828125 -23.46875 C 13.015625 -21.664062 11.609375 -19.207031 11.609375 -16.09375 C 11.609375 -14.394531 12.066406 -12.742188 12.984375 -11.140625 C 13.898438 -9.546875 15.253906 -8.238281 17.046875 -7.21875 C 18.847656 -6.207031 21.070312 -5.703125 23.71875 -5.703125 C 26.507812 -5.703125 29.160156 -6.257812 31.671875 -7.375 C 34.179688 -8.5 36.179688 -9.910156 37.671875 -11.609375 Z M 37.671875 -11.609375 "/></g></g></g><g fill="#f0ebe8" fill-opacity="1"><g transform="translate(1226.604864, 857.249906)"><g><path d="M 34.71875 -2.640625 C 33.976562 -2.304688 32.960938 -1.867188 31.671875 -1.328125 C 30.378906 -0.785156 28.882812 -0.3125 27.1875 0.09375 C 25.488281 0.507812 23.691406 0.71875 21.796875 0.71875 C 19.617188 0.71875 17.613281 0.328125 15.78125 -0.453125 C 13.945312 -1.234375 12.488281 -2.457031 11.40625 -4.125 C 10.320312 -5.789062 9.78125 -7.878906 9.78125 -10.390625 L 9.78125 -46.125 L 2.546875 -46.125 L 2.546875 -53.15625 L 9.78125 -53.15625 L 9.78125 -70.875 L 18.734375 -70.875 L 18.734375 -53.15625 L 30.65625 -53.15625 L 30.65625 -46.125 L 18.734375 -46.125 L 18.734375 -13.140625 C 18.867188 -11.234375 19.515625 -9.820312 20.671875 -8.90625 C 21.828125 -7.988281 23.1875 -7.53125 24.75 -7.53125 C 26.507812 -7.53125 28.132812 -7.835938 29.625 -8.453125 C 31.125 -9.066406 32.109375 -9.507812 32.578125 -9.78125 Z M 34.71875 -2.640625 "/></g></g></g><g fill="#f0ebe8" fill-opacity="1"><g transform="translate(1262.446932, 857.249906)"><g><path d="M 6.71875 -21.28125 L 6.71875 -53.15625 L 15.6875 -53.15625 L 15.6875 -23.015625 C 15.6875 -17.578125 16.632812 -13.5 18.53125 -10.78125 C 20.4375 -8.070312 23.253906 -6.71875 26.984375 -6.71875 C 29.429688 -6.71875 31.789062 -7.242188 34.0625 -8.296875 C 36.332031 -9.347656 38.382812 -10.859375 40.21875 -12.828125 C 42.050781 -14.796875 43.476562 -17.140625 44.5 -19.859375 L 44.5 -53.15625 L 53.453125 -53.15625 L 53.453125 -10.1875 C 53.453125 -9.09375 53.671875 -8.289062 54.109375 -7.78125 C 54.554688 -7.28125 55.289062 -6.992188 56.3125 -6.921875 L 56.3125 0 C 55.289062 0.132812 54.488281 0.21875 53.90625 0.25 C 53.332031 0.289062 52.773438 0.3125 52.234375 0.3125 C 50.535156 0.3125 49.078125 -0.210938 47.859375 -1.265625 C 46.640625 -2.316406 45.992188 -3.625 45.921875 -5.1875 L 45.71875 -11.40625 C 43.414062 -7.46875 40.3125 -4.410156 36.40625 -2.234375 C 32.5 -0.0664062 28.238281 1.015625 23.625 1.015625 C 18.0625 1.015625 13.851562 -0.863281 11 -4.625 C 8.144531 -8.394531 6.71875 -13.945312 6.71875 -21.28125 Z M 6.71875 -21.28125 "/></g></g></g><g fill="#f0ebe8" fill-opacity="1"><g transform="translate(1323.643247, 857.249906)"><g><path d="M 53.359375 0 L 44.390625 0 L 44.390625 -29.734375 C 44.390625 -35.367188 43.523438 -39.492188 41.796875 -42.109375 C 40.066406 -44.722656 37.4375 -46.03125 33.90625 -46.03125 C 31.46875 -46.03125 29.039062 -45.414062 26.625 -44.1875 C 24.21875 -42.96875 22.078125 -41.320312 20.203125 -39.25 C 18.335938 -37.1875 17 -34.796875 16.1875 -32.078125 L 16.1875 0 L 7.234375 0 L 7.234375 -53.15625 L 15.375 -53.15625 L 15.375 -41.75 C 16.800781 -44.257812 18.632812 -46.429688 20.875 -48.265625 C 23.113281 -50.097656 25.65625 -51.523438 28.5 -52.546875 C 31.351562 -53.566406 34.34375 -54.078125 37.46875 -54.078125 C 40.53125 -54.078125 43.09375 -53.515625 45.15625 -52.390625 C 47.226562 -51.265625 48.859375 -49.703125 50.046875 -47.703125 C 51.234375 -45.703125 52.082031 -43.34375 52.59375 -40.625 C 53.101562 -37.914062 53.359375 -34.960938 53.359375 -31.765625 Z M 53.359375 0 "/></g></g></g><g fill="#f0ebe8" fill-opacity="1"><g transform="translate(1383.719505, 857.249906)"><g><path d="M 28.40625 0.609375 C 24.8125 0.609375 21.503906 -0.117188 18.484375 -1.578125 C 15.460938 -3.035156 12.863281 -5.035156 10.6875 -7.578125 C 8.519531 -10.128906 6.84375 -13.035156 5.65625 -16.296875 C 4.46875 -19.554688 3.875 -22.945312 3.875 -26.46875 C 3.875 -30.207031 4.46875 -33.738281 5.65625 -37.0625 C 6.84375 -40.394531 8.535156 -43.332031 10.734375 -45.875 C 12.941406 -48.414062 15.539062 -50.414062 18.53125 -51.875 C 21.519531 -53.34375 24.847656 -54.078125 28.515625 -54.078125 C 32.921875 -54.078125 36.769531 -52.988281 40.0625 -50.8125 C 43.363281 -48.632812 46.132812 -45.882812 48.375 -42.5625 L 48.375 -53.15625 L 56.3125 -53.15625 L 56.3125 -0.609375 C 56.3125 4.410156 55.101562 8.648438 52.6875 12.109375 C 50.28125 15.578125 47.023438 18.207031 42.921875 20 C 38.816406 21.800781 34.25 22.703125 29.21875 22.703125 C 23.25 22.703125 18.363281 21.648438 14.5625 19.546875 C 10.757812 17.441406 7.601562 14.59375 5.09375 11 L 10.28125 6.421875 C 12.382812 9.535156 15.113281 11.875 18.46875 13.4375 C 21.832031 15 25.414062 15.78125 29.21875 15.78125 C 32.476562 15.78125 35.484375 15.1875 38.234375 14 C 40.984375 12.8125 43.1875 10.992188 44.84375 8.546875 C 46.507812 6.109375 47.34375 3.054688 47.34375 -0.609375 L 47.34375 -9.984375 C 45.375 -6.722656 42.675781 -4.140625 39.25 -2.234375 C 35.820312 -0.335938 32.207031 0.609375 28.40625 0.609375 Z M 31.15625 -6.71875 C 33.0625 -6.71875 34.894531 -7.054688 36.65625 -7.734375 C 38.425781 -8.410156 40.054688 -9.3125 41.546875 -10.4375 C 43.035156 -11.5625 44.289062 -12.832031 45.3125 -14.25 C 46.332031 -15.675781 47.007812 -17.140625 47.34375 -18.640625 L 47.34375 -33.90625 C 46.394531 -36.351562 45.035156 -38.507812 43.265625 -40.375 C 41.503906 -42.238281 39.503906 -43.695312 37.265625 -44.75 C 35.023438 -45.800781 32.71875 -46.328125 30.34375 -46.328125 C 27.625 -46.328125 25.195312 -45.75 23.0625 -44.59375 C 20.925781 -43.445312 19.109375 -41.90625 17.609375 -39.96875 C 16.117188 -38.03125 14.96875 -35.875 14.15625 -33.5 C 13.34375 -31.125 12.9375 -28.710938 12.9375 -26.265625 C 12.9375 -23.617188 13.410156 -21.125 14.359375 -18.78125 C 15.304688 -16.445312 16.59375 -14.363281 18.21875 -12.53125 C 19.851562 -10.695312 21.789062 -9.269531 24.03125 -8.25 C 26.269531 -7.226562 28.644531 -6.71875 31.15625 -6.71875 Z M 31.15625 -6.71875 "/></g></g></g><g fill="#f0ebe8" fill-opacity="1"><g transform="translate(1447.259205, 857.249906)"><g/></g></g><g clip-path="url(#0e899ae9af)"><path fill="#f0ebe8" d="M 219.539062 914.023438 C 113.09375 914.023438 45.75 854.296875 45.757812 754.691406 C 45.761719 660.710938 125.726562 591.972656 219.539062 586.328125 C 319.644531 580.308594 385.960938 664.398438 389.707031 758.304688 C 394.152344 869.71875 313.519531 914.023438 219.539062 914.023438 Z M 219.539062 914.023438 " fill-opacity="1" fill-rule="nonzero"/></g><g transform="matrix(1, 0, 0, 1, 107, 642)"><g clip-path="url(#b6d0d1b1d3)"><g fill="#212930" fill-opacity="1"><g transform="translate(0.530344, 172.197435)"><g><path d="M 111.375 -103.5 L 71.875 -103.5 L 71.875 0 L 41.875 0 L 41.875 -103.5 L 2.1875 -103.5 L 2.1875 -129.84375 L 111.375 -129.84375 Z M 111.375 -103.5 "/></g></g></g><g fill="#212930" fill-opacity="1"><g transform="translate(114.098358, 172.197435)"><g><path d="M 12.4375 0 L 12.4375 -129.84375 L 42.421875 -129.84375 L 42.421875 -26.328125 L 105.34375 -26.328125 L 105.34375 0 Z M 12.4375 0 "/></g></g></g><g clip-path="url(#6762b44204)"><g fill="#212930" fill-opacity="1"><g transform="translate(221.083116, 172.197435)"><g/></g></g></g></g></g></svg>